<svg width="655" height="653" viewBox="0 0 655 653" fill="none" xmlns="http://www.w3.org/2000/svg">
<path d="M327.438 116.668C250.438 116.668 187.438 179.668 187.438 256.668C187.438 333.668 250.438 396.668 327.438 396.668C404.438 396.668 467.438 333.668 467.438 256.668C467.438 179.668 404.438 116.668 327.438 116.668ZM327.438 350.001C276.104 350.001 234.104 308.001 234.104 256.668C234.104 205.335 276.104 163.335 327.438 163.335C378.771 163.335 420.771 205.335 420.771 256.668C420.771 308.001 378.771 350.001 327.438 350.001Z" fill="#242424"/>
<path d="M327.438 0C146.611 0 0.771484 145.84 0.771484 326.667C0.771484 415.333 36.9382 497 94.1048 555.333C108.105 569.333 123.271 582.167 140.771 593.833C193.271 631.167 257.438 652.167 327.438 652.167C397.438 652.167 461.598 630 514.105 593.833C530.438 582.167 545.605 569.333 560.772 555.333C619.105 495.833 654.105 415.333 654.105 326.667C654.105 145.84 508.265 0 327.438 0ZM327.438 606.667C257.438 606.667 194.438 581 145.438 539C158.271 497 196.771 466.667 242.271 466.667H413.765C459.265 466.667 497.765 497 510.598 539C460.431 581 397.431 606.667 327.425 606.667H327.438ZM545.598 501.667C521.098 452.667 470.931 420 413.765 420H242.271C183.938 420 133.771 453.833 110.438 501.667C70.7715 453.833 47.4382 393.167 47.4382 326.667C47.4382 172.667 173.438 46.6667 327.438 46.6667C481.438 46.6667 607.438 172.667 607.438 326.667C607.438 393.167 584.105 453.833 545.605 501.667H545.598Z" fill="#242424"/>
</svg>
